# Blender v2.90.1 OBJ File: ''
# www.blender.org
o Penrose
v 4.000072 5.000000 6.000072
v 4.000072 4.000014 4.000072
v 6.000072 5.999986 6.000072
v 6.000072 5.000000 4.000072
v 4.000072 -1.000000 6.000072
v 4.000072 1.000000 6.000072
v 4.000072 -1.000000 4.000072
v 4.000072 1.000000 4.000072
v 6.000072 -1.000000 6.000072
v 6.000072 1.000000 6.000072
v 6.000072 -1.000000 4.000072
v 6.000072 1.000000 4.000072
v 4.000072 -1.000000 -4.000072
v 4.000072 1.000000 -4.000072
v 4.000072 -1.000000 -6.000072
v 4.000072 1.000000 -6.000072
v 6.000072 -1.000000 -4.000072
v 6.000072 1.000000 -4.000072
v 6.000072 -1.000000 -6.000072
v 6.000072 1.000000 -6.000072
v -6.000072 -1.000000 -4.000072
v -6.000072 1.000000 -4.000072
v -6.000072 -1.000000 -6.000072
v -6.000072 1.000000 -6.000072
v -4.000072 -1.000000 -4.000072
v -4.000072 1.000000 -4.000072
v -4.000072 -1.000000 -6.000072
v -4.000072 1.000000 -6.000072
v -6.000072 -5.000000 -4.000072
v -6.000072 -5.999986 -6.000072
v -4.000072 -4.000014 -4.000072
v -4.000072 -5.000000 -6.000072
vn 1.0000 0.0000 0.0000
vn -1.0000 0.0000 0.0000
vn 0.0000 0.0000 1.0000
vn 0.0000 -1.0000 0.0000
vn 0.0000 0.0000 -1.0000
vn 0.0000 1.0000 0.0000
usemtl Material.006
s off
f 11//1 12//1 10//1 9//1
f 5//2 6//2 8//2 7//2
f 9//3 10//3 6//3 5//3
f 7//4 11//4 9//4 5//4
f 19//1 20//1 18//1 17//1
f 15//5 16//5 20//5 19//5
f 20//6 16//6 14//6 18//6
f 15//4 19//4 17//4 13//4
f 21//2 22//2 24//2 23//2
f 23//5 24//5 28//5 27//5
f 25//3 26//3 22//3 21//3
f 28//6 24//6 22//6 26//6
f 12//1 4//1 3//1 10//1
f 6//2 1//2 2//2 8//2
f 8//5 2//5 4//5 12//5
f 10//3 3//3 1//3 6//3
f 17//1 18//1 12//1 11//1
f 7//2 8//2 14//2 13//2
f 18//6 14//6 8//6 12//6
f 13//4 17//4 11//4 7//4
f 27//5 28//5 16//5 15//5
f 13//3 14//3 26//3 25//3
f 16//6 28//6 26//6 14//6
f 27//4 15//4 13//4 25//4
f 32//1 27//1 25//1 31//1
f 29//2 21//2 23//2 30//2
f 30//5 23//5 27//5 32//5
f 31//3 25//3 21//3 29//3
